<mxfile host="Electron" modified="2024-04-02T16:17:57.375Z" agent="Mozilla/5.0 (Windows NT 10.0; Win64; x64) AppleWebKit/537.36 (KHTML, like Gecko) draw.io/23.0.2 Chrome/120.0.6099.109 Electron/28.1.0 Safari/537.36" etag="9Ys6jYhAZx-EzWbcuiQE" version="23.0.2" type="device">
  <diagram name="Page-1" id="0cCxWgu35RBEwIe_DidX">
    <mxGraphModel dx="1050" dy="621" grid="1" gridSize="10" guides="1" tooltips="1" connect="1" arrows="1" fold="1" page="1" pageScale="1" pageWidth="827" pageHeight="1169" background="none" math="0" shadow="0">
      <root>
        <mxCell id="0" />
        <mxCell id="1" parent="0" />
        <mxCell id="Hnz0AAdHmyD1Vto9ZybG-3" value="" style="whiteSpace=wrap;html=1;aspect=fixed;" vertex="1" parent="1">
          <mxGeometry x="45" y="30" width="670" height="670" as="geometry" />
        </mxCell>
        <mxCell id="3KRo-dGussLcR0nacKD4-1" value="" style="whiteSpace=wrap;html=1;aspect=fixed;labelBackgroundColor=none;rounded=0;" parent="1" vertex="1">
          <mxGeometry x="210" y="160" width="340" height="340" as="geometry" />
        </mxCell>
        <mxCell id="3KRo-dGussLcR0nacKD4-5" value="&lt;h2 style=&quot;&quot;&gt;&lt;b style=&quot;background-color: initial;&quot;&gt;&lt;font face=&quot;Times New Roman&quot; style=&quot;font-size: 25px;&quot;&gt;&lt;u&gt;VPC&lt;/u&gt;&lt;/font&gt;&lt;/b&gt;&lt;/h2&gt;" style="text;align=left;html=1;verticalAlign=middle;whiteSpace=wrap;rounded=0;opacity=60;labelBackgroundColor=none;" parent="1" vertex="1">
          <mxGeometry x="490" y="130" width="80" height="30" as="geometry" />
        </mxCell>
        <mxCell id="3KRo-dGussLcR0nacKD4-6" value="" style="ellipse;whiteSpace=wrap;html=1;labelBackgroundColor=none;rounded=0;" parent="1" vertex="1">
          <mxGeometry x="320" y="120" width="120" height="80" as="geometry" />
        </mxCell>
        <mxCell id="3KRo-dGussLcR0nacKD4-7" value="" style="whiteSpace=wrap;html=1;aspect=fixed;labelBackgroundColor=none;rounded=0;" parent="1" vertex="1">
          <mxGeometry x="240" y="250" width="60" height="60" as="geometry" />
        </mxCell>
        <mxCell id="3KRo-dGussLcR0nacKD4-8" value="" style="whiteSpace=wrap;html=1;aspect=fixed;labelBackgroundColor=none;rounded=0;" parent="1" vertex="1">
          <mxGeometry x="460" y="250" width="60" height="60" as="geometry" />
        </mxCell>
        <mxCell id="3KRo-dGussLcR0nacKD4-9" value="" style="whiteSpace=wrap;html=1;aspect=fixed;labelBackgroundColor=none;rounded=0;" parent="1" vertex="1">
          <mxGeometry x="365" y="265" width="30" height="30" as="geometry" />
        </mxCell>
        <mxCell id="3KRo-dGussLcR0nacKD4-14" value="Internet Gate Way" style="text;strokeColor=none;align=center;fillColor=none;html=1;verticalAlign=middle;whiteSpace=wrap;rounded=0;fontSize=10;fontStyle=4;labelBackgroundColor=none;" parent="1" vertex="1">
          <mxGeometry x="350" y="145" width="60" height="30" as="geometry" />
        </mxCell>
        <mxCell id="3KRo-dGussLcR0nacKD4-15" value="Public-1A" style="text;strokeColor=none;align=center;fillColor=none;html=1;verticalAlign=middle;whiteSpace=wrap;rounded=0;fontSize=10;labelBackgroundColor=none;" parent="1" vertex="1">
          <mxGeometry x="240" y="250" width="60" height="25" as="geometry" />
        </mxCell>
        <mxCell id="3KRo-dGussLcR0nacKD4-16" value="Public-1B" style="text;strokeColor=none;align=center;fillColor=none;html=1;verticalAlign=middle;whiteSpace=wrap;rounded=0;fontSize=10;labelBackgroundColor=none;" parent="1" vertex="1">
          <mxGeometry x="460" y="250" width="60" height="25" as="geometry" />
        </mxCell>
        <mxCell id="3KRo-dGussLcR0nacKD4-17" value="Route Table" style="text;strokeColor=none;align=center;fillColor=none;html=1;verticalAlign=middle;whiteSpace=wrap;rounded=0;fontSize=10;labelBackgroundColor=none;" parent="1" vertex="1">
          <mxGeometry x="345" y="290" width="70" height="30" as="geometry" />
        </mxCell>
        <mxCell id="3KRo-dGussLcR0nacKD4-21" value="" style="endArrow=classic;html=1;rounded=0;entryX=0.5;entryY=1;entryDx=0;entryDy=0;exitX=0.5;exitY=0;exitDx=0;exitDy=0;labelBackgroundColor=none;fontColor=default;" parent="1" source="3KRo-dGussLcR0nacKD4-9" target="3KRo-dGussLcR0nacKD4-6" edge="1">
          <mxGeometry width="50" height="50" relative="1" as="geometry">
            <mxPoint x="350" y="270" as="sourcePoint" />
            <mxPoint x="400" y="220" as="targetPoint" />
          </mxGeometry>
        </mxCell>
        <mxCell id="3KRo-dGussLcR0nacKD4-22" value="" style="endArrow=classic;html=1;rounded=0;exitX=0;exitY=0.5;exitDx=0;exitDy=0;entryX=1;entryY=0.5;entryDx=0;entryDy=0;labelBackgroundColor=none;fontColor=default;" parent="1" source="3KRo-dGussLcR0nacKD4-8" target="3KRo-dGussLcR0nacKD4-9" edge="1">
          <mxGeometry width="50" height="50" relative="1" as="geometry">
            <mxPoint x="450" y="270" as="sourcePoint" />
            <mxPoint x="400" y="320" as="targetPoint" />
          </mxGeometry>
        </mxCell>
        <mxCell id="3KRo-dGussLcR0nacKD4-23" value="" style="endArrow=classic;html=1;rounded=0;exitX=1;exitY=0.5;exitDx=0;exitDy=0;entryX=0;entryY=0.5;entryDx=0;entryDy=0;labelBackgroundColor=none;fontColor=default;" parent="1" source="3KRo-dGussLcR0nacKD4-7" target="3KRo-dGussLcR0nacKD4-9" edge="1">
          <mxGeometry width="50" height="50" relative="1" as="geometry">
            <mxPoint x="405" y="290" as="sourcePoint" />
            <mxPoint x="470" y="290" as="targetPoint" />
          </mxGeometry>
        </mxCell>
        <mxCell id="3KRo-dGussLcR0nacKD4-24" value="" style="ellipse;whiteSpace=wrap;html=1;aspect=fixed;labelBackgroundColor=none;rounded=0;" parent="1" vertex="1">
          <mxGeometry x="247.5" y="282.5" width="45" height="45" as="geometry" />
        </mxCell>
        <mxCell id="3KRo-dGussLcR0nacKD4-25" value="" style="ellipse;whiteSpace=wrap;html=1;aspect=fixed;labelBackgroundColor=none;rounded=0;" parent="1" vertex="1">
          <mxGeometry x="467.5" y="290" width="45" height="45" as="geometry" />
        </mxCell>
        <mxCell id="3KRo-dGussLcR0nacKD4-26" value="NAT&lt;br style=&quot;font-size: 10px;&quot;&gt;Gateway" style="text;strokeColor=none;align=center;fillColor=none;html=1;verticalAlign=middle;whiteSpace=wrap;rounded=0;fontSize=10;labelBackgroundColor=none;" parent="1" vertex="1">
          <mxGeometry x="240" y="295" width="60" height="15" as="geometry" />
        </mxCell>
        <mxCell id="3KRo-dGussLcR0nacKD4-27" value="NAT&lt;br style=&quot;font-size: 10px;&quot;&gt;Gateway" style="text;strokeColor=none;align=center;fillColor=none;html=1;verticalAlign=middle;whiteSpace=wrap;rounded=0;fontSize=10;labelBackgroundColor=none;" parent="1" vertex="1">
          <mxGeometry x="460" y="297.5" width="60" height="15" as="geometry" />
        </mxCell>
        <mxCell id="3KRo-dGussLcR0nacKD4-29" value="" style="whiteSpace=wrap;html=1;aspect=fixed;labelBackgroundColor=none;rounded=0;" parent="1" vertex="1">
          <mxGeometry x="240" y="410" width="60" height="60" as="geometry" />
        </mxCell>
        <mxCell id="3KRo-dGussLcR0nacKD4-30" value="" style="whiteSpace=wrap;html=1;aspect=fixed;labelBackgroundColor=none;rounded=0;" parent="1" vertex="1">
          <mxGeometry x="460" y="410" width="60" height="60" as="geometry" />
        </mxCell>
        <mxCell id="3KRo-dGussLcR0nacKD4-31" value="Private-1A" style="text;strokeColor=none;align=center;fillColor=none;html=1;verticalAlign=middle;whiteSpace=wrap;rounded=0;fontSize=10;labelBackgroundColor=none;" parent="1" vertex="1">
          <mxGeometry x="240" y="410" width="60" height="25" as="geometry" />
        </mxCell>
        <mxCell id="3KRo-dGussLcR0nacKD4-32" value="Private-1&lt;b&gt;B&lt;/b&gt;" style="text;strokeColor=none;align=center;fillColor=none;html=1;verticalAlign=middle;whiteSpace=wrap;rounded=0;fontSize=10;labelBackgroundColor=none;" parent="1" vertex="1">
          <mxGeometry x="460" y="410" width="60" height="25" as="geometry" />
        </mxCell>
        <mxCell id="3KRo-dGussLcR0nacKD4-33" value="" style="whiteSpace=wrap;html=1;aspect=fixed;labelBackgroundColor=none;rounded=0;" parent="1" vertex="1">
          <mxGeometry x="335" y="425" width="30" height="30" as="geometry" />
        </mxCell>
        <mxCell id="3KRo-dGussLcR0nacKD4-34" value="" style="whiteSpace=wrap;html=1;aspect=fixed;labelBackgroundColor=none;rounded=0;" parent="1" vertex="1">
          <mxGeometry x="395" y="425" width="30" height="30" as="geometry" />
        </mxCell>
        <mxCell id="3KRo-dGussLcR0nacKD4-35" value="" style="endArrow=classic;html=1;rounded=0;entryX=0.3;entryY=0.956;entryDx=0;entryDy=0;exitX=0.5;exitY=0;exitDx=0;exitDy=0;entryPerimeter=0;labelBackgroundColor=none;fontColor=default;" parent="1" source="3KRo-dGussLcR0nacKD4-34" target="3KRo-dGussLcR0nacKD4-25" edge="1">
          <mxGeometry width="50" height="50" relative="1" as="geometry">
            <mxPoint x="420" y="400" as="sourcePoint" />
            <mxPoint x="470" y="350" as="targetPoint" />
          </mxGeometry>
        </mxCell>
        <mxCell id="3KRo-dGussLcR0nacKD4-36" value="" style="endArrow=classic;html=1;rounded=0;exitX=0.5;exitY=0;exitDx=0;exitDy=0;labelBackgroundColor=none;fontColor=default;" parent="1" source="3KRo-dGussLcR0nacKD4-33" target="3KRo-dGussLcR0nacKD4-24" edge="1">
          <mxGeometry width="50" height="50" relative="1" as="geometry">
            <mxPoint x="290" y="390" as="sourcePoint" />
            <mxPoint x="340" y="340" as="targetPoint" />
          </mxGeometry>
        </mxCell>
        <mxCell id="3KRo-dGussLcR0nacKD4-37" value="" style="endArrow=classic;html=1;rounded=0;entryX=0;entryY=0.5;entryDx=0;entryDy=0;exitX=1;exitY=0.5;exitDx=0;exitDy=0;labelBackgroundColor=none;fontColor=default;" parent="1" source="3KRo-dGussLcR0nacKD4-29" target="3KRo-dGussLcR0nacKD4-33" edge="1">
          <mxGeometry width="50" height="50" relative="1" as="geometry">
            <mxPoint x="300" y="450" as="sourcePoint" />
            <mxPoint x="350" y="400" as="targetPoint" />
          </mxGeometry>
        </mxCell>
        <mxCell id="3KRo-dGussLcR0nacKD4-38" value="" style="endArrow=classic;html=1;rounded=0;entryX=1;entryY=0.5;entryDx=0;entryDy=0;labelBackgroundColor=none;fontColor=default;" parent="1" target="3KRo-dGussLcR0nacKD4-34" edge="1">
          <mxGeometry width="50" height="50" relative="1" as="geometry">
            <mxPoint x="460" y="440" as="sourcePoint" />
            <mxPoint x="510" y="390" as="targetPoint" />
          </mxGeometry>
        </mxCell>
        <mxCell id="3KRo-dGussLcR0nacKD4-39" value="User" style="shape=umlActor;verticalLabelPosition=bottom;verticalAlign=top;html=1;outlineConnect=0;labelBackgroundColor=none;rounded=0;" parent="1" vertex="1">
          <mxGeometry x="120" y="130" width="10" height="30" as="geometry" />
        </mxCell>
        <mxCell id="3KRo-dGussLcR0nacKD4-44" value="" style="endArrow=none;dashed=1;html=1;rounded=0;entryX=-0.008;entryY=0.313;entryDx=0;entryDy=0;entryPerimeter=0;labelBackgroundColor=none;fontColor=default;" parent="1" target="3KRo-dGussLcR0nacKD4-6" edge="1">
          <mxGeometry width="50" height="50" relative="1" as="geometry">
            <mxPoint x="140" y="145" as="sourcePoint" />
            <mxPoint x="180" y="100" as="targetPoint" />
          </mxGeometry>
        </mxCell>
        <mxCell id="3KRo-dGussLcR0nacKD4-46" value="RT-1a" style="text;strokeColor=none;align=center;fillColor=none;html=1;verticalAlign=middle;whiteSpace=wrap;rounded=0;labelBackgroundColor=none;" parent="1" vertex="1">
          <mxGeometry x="325" y="455" width="50" height="15" as="geometry" />
        </mxCell>
        <mxCell id="3KRo-dGussLcR0nacKD4-48" value="RT-1b" style="text;strokeColor=none;align=center;fillColor=none;html=1;verticalAlign=middle;whiteSpace=wrap;rounded=0;labelBackgroundColor=none;" parent="1" vertex="1">
          <mxGeometry x="385" y="455" width="50" height="15" as="geometry" />
        </mxCell>
      </root>
    </mxGraphModel>
  </diagram>
</mxfile>
